<svg xmlns="http://www.w3.org/2000/svg" xmlns:xlink="http://www.w3.org/1999/xlink" width="24" height="76"><symbol id="sprite-3" viewBox="0 0 24 24"><title>3</title><path d="M15 15v-1.5a1.5 1.5 0 0 0-1.5-1.5 1.5 1.5 0 0 0 1.5-1.5V9a2 2 0 0 0-2-2H9v2h4v2h-2v2h2v2H9v2h4a2 2 0 0 0 2-2m4 4H5V5h14m0-2H5a2 2 0 0 0-2 2v14a2 2 0 0 0 2 2h14a2 2 0 0 0 2-2V5a2 2 0 0 0-2-2z"/></symbol><symbol id="sprite-2" viewBox="0 0 24 24"><title>2</title><path d="M15 15h-4v-2h2a2 2 0 0 0 2-2V9a2 2 0 0 0-2-2H9v2h4v2h-2a2 2 0 0 0-2 2v4h6m4 2H5V5h14m0-2H5a2 2 0 0 0-2 2v14a2 2 0 0 0 2 2h14a2 2 0 0 0 2-2V5a2 2 0 0 0-2-2z"/></symbol><symbol id="sprite-1" viewBox="0 0 24 24"><title>1</title><path d="M19 19H5V5h14m0-2H5a2 2 0 0 0-2 2v14a2 2 0 0 0 2 2h14a2 2 0 0 0 2-2V5a2 2 0 0 0-2-2m-7 14h2V7h-4v2h2"/></symbol><use xlink:href="#sprite-1" width="24" height="24"/><use xlink:href="#sprite-2" y="26" width="24" height="24"/><use xlink:href="#sprite-3" y="52" width="24" height="24"/></svg>